<?xml version="1.0" standalone="no"?>
<!DOCTYPE svg PUBLIC "-//W3C//DTD SVG 20010904//EN"
 "http://www.w3.org/TR/2001/REC-SVG-20010904/DTD/svg10.dtd">
<svg version="1.0" xmlns="http://www.w3.org/2000/svg"
 width="512.000000pt" height="512.000000pt" viewBox="0 0 512.000000 512.000000"
 preserveAspectRatio="xMidYMid meet">

<g transform="translate(0.000000,512.000000) scale(0.100000,-0.100000)"
fill="#000000" stroke="none">
<path d="M891 4870 c-65 -15 -84 -48 -196 -335 l-105 -269 0 -566 c0 -537 1
-568 18 -583 25 -23 78 -21 102 3 19 19 20 33 20 535 l0 515 775 0 775 0 0
-565 c0 -610 -1 -602 52 -639 23 -17 74 -21 104 -9 10 3 103 83 208 176 105
93 196 172 203 174 7 3 88 -62 180 -144 254 -224 240 -213 279 -213 46 0 87
22 102 55 9 19 12 175 12 595 l0 570 775 0 775 0 0 -1655 c0 -1844 6 -1694
-69 -1715 -45 -12 -1361 -14 -1361 -1 0 4 33 11 74 13 113 7 183 55 227 153
47 105 22 224 -63 300 l-40 37 20 21 c54 57 79 189 51 264 -17 47 -59 100 -97
125 -20 14 -295 129 -610 258 -315 128 -571 234 -569 236 2 2 126 41 276 88
157 48 289 95 311 110 76 50 117 167 91 262 -12 46 -70 118 -112 139 -69 36
-115 37 -269 5 -796 -168 -1207 -244 -1477 -275 -173 -20 -209 -18 -204 10 19
107 7 155 -46 193 -36 24 -452 192 -477 192 -41 0 -106 -41 -126 -80 -46 -89
-500 -1220 -500 -1244 0 -35 22 -87 48 -109 28 -26 429 -188 478 -194 49 -6
94 14 126 57 12 17 28 30 36 30 26 0 183 -79 246 -124 34 -24 106 -91 160
-150 54 -58 128 -128 164 -156 62 -46 187 -116 272 -151 31 -13 -3 -14 -334
-17 -481 -3 -466 -9 -466 194 0 94 -3 116 -18 135 -23 28 -73 30 -102 4 -18
-16 -20 -30 -20 -154 0 -122 3 -141 24 -187 13 -28 39 -63 58 -77 76 -59 58
-57 681 -57 l574 0 492 -201 c461 -187 497 -200 556 -200 140 0 255 110 255
243 l0 35 58 7 c70 8 156 48 184 87 l22 29 710 0 c482 0 724 4 751 11 53 14
136 99 153 155 9 32 12 426 12 1741 l0 1699 -109 278 c-60 152 -119 288 -131
301 -12 13 -41 28 -65 34 -56 14 -382 14 -423 0 -56 -19 -64 -101 -13 -128 12
-7 95 -11 209 -11 l190 0 47 -122 c26 -68 62 -160 80 -205 18 -45 30 -84 27
-87 -3 -3 -346 -6 -763 -6 l-759 0 -5 23 c-3 12 -25 105 -48 207 l-43 185 295
3 c287 2 296 3 318 24 41 38 26 98 -28 117 -38 13 -2953 14 -3008 1z m1499
-146 c0 -13 -91 -397 -96 -405 -6 -11 -1524 -12 -1524 -2 0 6 113 302 146 381
l13 32 730 0 c402 0 731 -3 731 -6z m821 -199 c25 -110 45 -203 42 -207 -6
-12 -803 -10 -803 1 0 5 20 97 45 204 25 108 45 198 45 201 0 4 140 5 312 4
l312 -3 47 -200z m69 -871 c0 -483 -1 -516 -17 -503 -9 8 -82 72 -162 143 -80
70 -161 140 -178 153 -38 30 -92 33 -129 8 -24 -15 -251 -213 -331 -289 l-33
-30 0 517 0 517 425 0 425 0 0 -516z m-2447 -957 c155 -63 177 -75 174 -92 -5
-26 -457 -1137 -468 -1149 -10 -12 -391 144 -387 159 2 6 109 271 238 588 184
452 238 576 250 572 8 -3 95 -38 193 -78z m2196 -22 c57 -29 58 -125 2 -154
-11 -7 -181 -61 -376 -122 -195 -60 -366 -115 -380 -121 -30 -14 -45 -54 -33
-89 11 -33 -28 -16 743 -329 341 -139 632 -261 647 -272 57 -39 58 -133 1
-178 -56 -44 -57 -44 -543 154 -250 103 -464 186 -476 186 -58 0 -90 -79 -48
-120 10 -10 260 -116 554 -235 374 -152 544 -226 564 -245 20 -20 30 -40 33
-74 5 -42 3 -48 -30 -81 -33 -33 -53 -40 -102 -35 -11 1 -264 101 -563 222
-588 239 -577 237 -611 177 -21 -38 -8 -75 37 -98 20 -10 206 -87 412 -171
489 -199 495 -201 514 -239 42 -80 -14 -171 -105 -171 -12 0 -226 83 -475 185
-250 102 -461 185 -468 185 -7 0 -25 -9 -40 -21 -32 -25 -36 -77 -7 -103 10
-9 180 -82 377 -163 198 -80 371 -154 386 -165 32 -22 52 -77 43 -117 -3 -15
-19 -41 -35 -56 -56 -54 -49 -56 -820 259 -388 158 -732 301 -765 318 -83 42
-139 85 -215 165 -190 200 -283 270 -442 335 l-77 31 15 36 c8 20 78 191 156
381 77 190 149 365 159 390 l20 46 93 -4 c119 -5 232 7 571 64 242 41 892 170
1115 222 105 25 133 26 169 7z"/>
</g>
</svg>
